<?xml version="1.0" encoding="UTF-8"?>
<svg id="Layer_1" xmlns="http://www.w3.org/2000/svg" xmlns:xlink="http://www.w3.org/1999/xlink" viewBox="0 0 728 129">
  <defs>
    <style>
      .cls-1 {
        fill: #fff;
      }

      .cls-2 {
        fill: #259bee;
      }

      .cls-3 {
        fill: #c5fc90;
      }

      .cls-4 {
        fill: url(#linear-gradient);
      }
    </style>
    <linearGradient id="linear-gradient" x1="17.56" y1="76.89" x2="92.52" y2="76.89" gradientUnits="userSpaceOnUse">
      <stop offset="0" stop-color="#259bee"/>
      <stop offset="1" stop-color="#c5fc90"/>
    </linearGradient>
  </defs>
  <g>
    <path class="cls-4" d="M24.62,65.14c5.51,2.74,23.61,11.73,28.88,14.35.92.46,2,.46,2.92,0l29.4-14.49c1.25-.62,2.7-.85,4.04-.46,1.43.42,2.86,1.5,2.62,4.15-.1,1.1-.79,2.07-1.78,2.59l-34.2,17.77s-.85.83-2.54,0l-33.93-16.9c-1.46-.73-2.47-2.17-2.48-3.78,0-1.41.53-2.95,2.65-3.65,1.45-.48,3.04-.26,4.41.42Z"/>
    <path class="cls-1" d="M24.54,81.52c5.51,2.74,23.61,11.73,28.88,14.35.92.46,2,.46,2.92,0l29.4-14.49c1.25-.62,2.7-.85,4.04-.46,1.43.42,2.86,1.5,2.62,4.15-.1,1.1-.79,2.07-1.78,2.59l-34.2,17.77s-.85.83-2.54,0l-33.93-16.9c-1.46-.73-2.47-2.17-2.48-3.78,0-1.41.53-2.95,2.65-3.65,1.45-.48,3.04-.26,4.41.42Z"/>
    <path class="cls-1" d="M19.2,48.33l33.64-17.12s2.26-1.2,4.62,0l32.41,16.48s7.35,3.31,0,7.09l-31.75,15.92s-2.26,2.02-6.6,0l-32.32-16.38s-4.52-2.67,0-5.98Z"/>
  </g>
  <g>
    <path class="cls-2" d="M155.3,32.97c7.63,0,14.14,2.82,19.52,8.45,5.38,5.63,8.07,12.5,8.07,20.59s-2.69,14.96-8.07,20.59c-5.38,5.63-11.89,8.45-19.52,8.45-9.02,0-15.89-3.64-20.61-10.93v31.58h-9.49V34.4h9.49v9.5c4.73-7.29,11.6-10.93,20.61-10.93ZM154.1,81.78c5.45,0,10.03-1.89,13.74-5.69,3.71-3.79,5.56-8.48,5.56-14.08s-1.85-10.29-5.56-14.08c-3.71-3.79-8.29-5.69-13.74-5.69s-10.14,1.9-13.85,5.69c-3.71,3.79-5.56,8.49-5.56,14.08s1.85,10.29,5.56,14.08c3.71,3.79,8.32,5.69,13.85,5.69Z"/>
    <path class="cls-2" d="M199.04,24.36c-1.82,0-3.35-.62-4.58-1.88-1.24-1.25-1.85-2.76-1.85-4.53s.62-3.29,1.85-4.58c1.24-1.29,2.76-1.93,4.58-1.93s3.23.64,4.47,1.93c1.24,1.29,1.85,2.82,1.85,4.58s-.62,3.28-1.85,4.53c-1.24,1.25-2.73,1.88-4.47,1.88ZM194.24,89.62v-55.21h9.49v55.21h-9.49Z"/>
    <path class="cls-2" d="M263.49,34.4h9.38v52.89c0,8.17-2.73,14.52-8.18,19.05-5.45,4.53-12,6.79-19.63,6.79-6.11,0-11.38-1.16-15.81-3.48-4.44-2.32-7.78-5.65-10.03-9.99l8.29-4.75c2.98,6.18,8.91,9.28,17.78,9.28,5.67,0,10.12-1.51,13.36-4.53,3.23-3.02,4.85-7.14,4.85-12.37v-7.84c-4.8,7.36-11.63,11.04-20.5,11.04-7.78,0-14.36-2.8-19.74-8.39-5.38-5.59-8.07-12.4-8.07-20.43s2.69-14.81,8.07-20.37c5.38-5.56,11.96-8.34,19.74-8.34,8.94,0,15.78,3.64,20.5,10.93v-9.5ZM230.23,75.7c3.71,3.75,8.32,5.63,13.85,5.63s10.14-1.88,13.85-5.63c3.71-3.75,5.56-8.43,5.56-14.02s-1.85-10.16-5.56-13.91c-3.71-3.75-8.33-5.63-13.85-5.63s-10.14,1.88-13.85,5.63c-3.71,3.75-5.56,8.39-5.56,13.91s1.85,10.27,5.56,14.02Z"/>
    <path class="cls-2" d="M332.53,34.4h9.38v52.89c0,8.17-2.73,14.52-8.18,19.05-5.45,4.53-12,6.79-19.63,6.79-6.11,0-11.38-1.16-15.81-3.48-4.44-2.32-7.78-5.65-10.03-9.99l8.29-4.75c2.98,6.18,8.91,9.28,17.78,9.28,5.67,0,10.12-1.51,13.36-4.53,3.23-3.02,4.85-7.14,4.85-12.37v-7.84c-4.8,7.36-11.63,11.04-20.5,11.04-7.78,0-14.36-2.8-19.74-8.39-5.38-5.59-8.07-12.4-8.07-20.43s2.69-14.81,8.07-20.37c5.38-5.56,11.96-8.34,19.74-8.34,8.94,0,15.78,3.64,20.5,10.93v-9.5ZM299.26,75.7c3.71,3.75,8.32,5.63,13.85,5.63s10.14-1.88,13.85-5.63c3.71-3.75,5.56-8.43,5.56-14.02s-1.85-10.16-5.56-13.91c-3.71-3.75-8.33-5.63-13.85-5.63s-10.14,1.88-13.85,5.63c-3.71,3.75-5.56,8.39-5.56,13.91s1.85,10.27,5.56,14.02Z"/>
    <path class="cls-2" d="M361.1,24.36c-1.82,0-3.35-.62-4.58-1.88-1.24-1.25-1.85-2.76-1.85-4.53s.62-3.29,1.85-4.58c1.24-1.29,2.76-1.93,4.58-1.93s3.23.64,4.47,1.93c1.24,1.29,1.85,2.82,1.85,4.58s-.62,3.28-1.85,4.53c-1.24,1.25-2.73,1.88-4.47,1.88ZM356.3,89.62v-55.21h9.49v55.21h-9.49Z"/>
    <path class="cls-2" d="M386.95,66.43c.94,4.93,3.18,8.76,6.71,11.48,3.53,2.72,7.87,4.09,13.03,4.09,7.2,0,12.43-2.69,15.71-8.06l8.07,4.64c-5.31,8.32-13.31,12.48-23.99,12.48-8.65,0-15.69-2.74-21.1-8.23-5.42-5.48-8.13-12.42-8.13-20.81s2.65-15.24,7.96-20.76c5.31-5.52,12.18-8.28,20.61-8.28,8,0,14.52,2.85,19.58,8.56,5.05,5.71,7.58,12.57,7.58,20.59,0,1.4-.11,2.83-.33,4.31h-45.7ZM405.82,42.02c-5.09,0-9.31,1.45-12.65,4.36-3.35,2.91-5.42,6.79-6.22,11.65h36.43c-.8-5.23-2.84-9.2-6.11-11.93-3.27-2.72-7.09-4.08-11.45-4.08Z"/>
    <path class="cls-3" d="M449.88,49.15c0,2.09,1.07,3.76,3.21,5.02,2.14,1.26,4.69,2.33,7.66,3.21,2.96.88,5.94,1.77,8.94,2.66,3,.89,5.54,2.56,7.61,5.01,2.08,2.45,3.12,5.6,3.12,9.44,0,5.01-1.91,9.02-5.73,12.04-3.82,3.02-8.71,4.53-14.67,4.53-5.31,0-9.85-1.18-13.63-3.53-3.78-2.36-6.47-5.48-8.07-9.39l8.18-4.75c.87,2.65,2.51,4.75,4.91,6.29s5.27,2.32,8.62,2.32c3.13,0,5.71-.61,7.74-1.82,2.03-1.21,3.05-3.11,3.05-5.68,0-2.13-1.06-3.84-3.17-5.13-2.11-1.29-4.65-2.38-7.61-3.28-2.96-.9-5.94-1.81-8.94-2.72-3-.91-5.55-2.54-7.66-4.9-2.11-2.36-3.16-5.37-3.16-9.05,0-4.79,1.84-8.72,5.51-11.82,3.67-3.09,8.27-4.64,13.8-4.64,4.43,0,8.38,1.01,11.83,3.04,3.45,2.03,6.05,4.84,7.8,8.45l-7.96,4.53c-1.96-4.71-5.85-7.07-11.67-7.07-2.69,0-4.98.63-6.87,1.89-1.89,1.26-2.84,3.04-2.84,5.35Z"/>
    <path class="cls-3" d="M519.14,43.68h-14.51v29.92c0,2.72.53,4.66,1.58,5.8,1.05,1.14,2.67,1.73,4.85,1.77,2.18.04,4.87-.02,8.07-.17v8.61c-8.29,1.1-14.36.42-18.21-2.04-3.85-2.47-5.78-7.12-5.78-13.97v-29.92h-10.8v-9.28h10.8v-12.59l9.49-2.87v15.46h14.51v9.28Z"/>
    <path class="cls-3" d="M572.8,34.4h9.49v55.21h-9.49v-9.5c-4.73,7.29-11.6,10.93-20.61,10.93-7.63,0-14.14-2.82-19.52-8.45-5.38-5.63-8.07-12.5-8.07-20.59s2.69-14.96,8.07-20.59c5.38-5.63,11.89-8.45,19.52-8.45,9.02,0,15.89,3.64,20.61,10.93v-9.5ZM553.38,81.78c5.52,0,10.14-1.89,13.85-5.69,3.71-3.79,5.56-8.48,5.56-14.08s-1.85-10.29-5.56-14.08c-3.71-3.79-8.33-5.69-13.85-5.69s-10.03,1.9-13.74,5.69c-3.71,3.79-5.56,8.49-5.56,14.08s1.85,10.29,5.56,14.08c3.71,3.79,8.29,5.69,13.74,5.69Z"/>
    <path class="cls-3" d="M622.31,91.05c-8.22,0-15.05-2.78-20.5-8.34-5.45-5.56-8.18-12.46-8.18-20.7s2.73-15.15,8.18-20.7c5.45-5.56,12.29-8.34,20.5-8.34,5.38,0,10.21,1.31,14.51,3.92,4.29,2.61,7.49,6.13,9.6,10.54l-7.96,4.64c-1.38-2.94-3.51-5.3-6.38-7.07-2.87-1.77-6.13-2.65-9.76-2.65-5.45,0-10.02,1.88-13.69,5.63-3.67,3.75-5.51,8.43-5.51,14.02s1.83,10.16,5.51,13.91c3.67,3.75,8.23,5.63,13.69,5.63,3.63,0,6.91-.86,9.82-2.59,2.91-1.73,5.13-4.07,6.65-7.01l8.07,4.75c-2.33,4.34-5.67,7.82-10.03,10.43-4.36,2.61-9.2,3.92-14.51,3.92Z"/>
    <path class="cls-3" d="M702.36,89.62h-11.78l-24.87-26.14v26.14h-9.49V12.32h9.49v46.39l23.56-24.31h12.21l-26.07,26.72,26.94,28.49Z"/>
  </g>
</svg>