<?xml version="1.0" encoding="UTF-8"?>
<svg id="Layer_1" xmlns="http://www.w3.org/2000/svg" xmlns:xlink="http://www.w3.org/1999/xlink" viewBox="0 0 279 345">
  <defs>
    <style>
      .cls-1 {
        fill: url(#linear-gradient);
      }
    </style>
    <linearGradient id="linear-gradient" x1="62.14" y1="167.7" x2="220.9" y2="167.7" gradientUnits="userSpaceOnUse">
      <stop offset="0" stop-color="#259bee"/>
      <stop offset="1" stop-color="#c5fc90"/>
    </linearGradient>
  </defs>
  <path class="cls-1" d="M64.84,211.05c-1.8-1.8-2.7-3.8-2.7-6v-108c0-2.4.9-4.45,2.7-6.15,1.8-1.7,3.8-2.55,6-2.55h8.1c2.4,0,4.45.85,6.15,2.55,1.7,1.7,2.55,3.75,2.55,6.15v108c0,2.2-.85,4.2-2.55,6-1.7,1.8-3.75,2.7-6.15,2.7h-8.1c-2.2,0-4.2-.9-6-2.7ZM98.29,77.97c-1.7-1.72-2.55-3.8-2.55-6.22v-7.89c0-2.43.85-4.5,2.55-6.22,1.7-1.72,3.65-2.58,5.85-2.58h74.7c2.4,0,4.45.86,6.15,2.58,1.7,1.72,2.55,3.79,2.55,6.22v7.89c0,2.43-.85,4.5-2.55,6.22-1.7,1.72-3.75,2.58-6.15,2.58h-74.7c-2.2,0-4.15-.86-5.85-2.58ZM98.29,244.35c-1.7-1.8-2.55-3.8-2.55-6v-8.1c0-2.2.85-4.2,2.55-6,1.7-1.8,3.65-2.7,5.85-2.7h74.7c2.4,0,4.45.9,6.15,2.7,1.7,1.8,2.55,3.8,2.55,6v8.1c0,2.2-.85,4.2-2.55,6-1.7,1.8-3.75,2.7-6.15,2.7h-74.7c-2.2,0-4.15-.9-5.85-2.7ZM198.2,211.05c-1.71-1.8-2.56-3.8-2.56-6v-108c0-2.4.85-4.45,2.56-6.15,1.7-1.7,3.76-2.55,6.16-2.55h7.82c2.41,0,4.46.85,6.16,2.55,1.7,1.7,2.56,3.75,2.56,6.15v108c0,2.2-.85,4.2-2.56,6-1.71,1.8-3.76,2.7-6.16,2.7h-7.82c-2.41,0-4.46-.9-6.16-2.7ZM198.19,277.65c-1.7-1.8-2.55-3.8-2.55-6v-8.1c0-2.2.85-4.2,2.55-6,1.7-1.8,3.75-2.7,6.15-2.7h7.8c2.4,0,4.45.9,6.15,2.7,1.7,1.8,2.55,3.8,2.55,6v8.1c0,2.2-.85,4.2-2.55,6-1.7,1.8-3.75,2.7-6.15,2.7h-7.8c-2.4,0-4.45-.9-6.15-2.7Z"/>
</svg>